<?xml version="1.0" encoding="UTF-8" standalone="no"?>
<!-- Created with Inkscape (http://www.inkscape.org/) -->

<svg
   width="26.55615mm"
   height="27.212688mm"
   viewBox="0 0 26.556151 27.212689"
   version="1.1"
   id="svg5"
   xml:space="preserve"
   inkscape:version="1.2.1 (9c6d41e410, 2022-07-14)"
   sodipodi:docname="majin.svg"
   xmlns:inkscape="http://www.inkscape.org/namespaces/inkscape"
   xmlns:sodipodi="http://sodipodi.sourceforge.net/DTD/sodipodi-0.dtd"
   xmlns="http://www.w3.org/2000/svg"
   xmlns:svg="http://www.w3.org/2000/svg"><sodipodi:namedview
     id="namedview7"
     pagecolor="#ffffff"
     bordercolor="#000000"
     borderopacity="0.25"
     inkscape:showpageshadow="2"
     inkscape:pageopacity="0.0"
     inkscape:pagecheckerboard="0"
     inkscape:deskcolor="#d1d1d1"
     inkscape:document-units="mm"
     showgrid="false"
     inkscape:zoom="4.7572176"
     inkscape:cx="42.672003"
     inkscape:cy="97.536006"
     inkscape:window-width="1366"
     inkscape:window-height="699"
     inkscape:window-x="0"
     inkscape:window-y="0"
     inkscape:window-maximized="1"
     inkscape:current-layer="layer1"
     showguides="true" /><defs
     id="defs2" /><g
     inkscape:label="Capa 1"
     inkscape:groupmode="layer"
     id="layer1"
     transform="translate(-37.27549,-201.12845)"><path
       id="path302"
       style="fill:#767676;fill-opacity:0.229191;stroke:none;stroke-width:0.4;stroke-linecap:square;stroke-linejoin:round;stroke-dasharray:none;paint-order:stroke markers fill"
       d="m 57.214533,201.49715 c -7.532103,0.0881 -14.910613,5.39054 -13.905094,10.29808 l -0.530717,-0.30593 c -0.0976,-1.0704 -0.527775,-1.44994 -0.602547,-4.03076 -0.04062,-1.40186 -1.904724,-1.04064 -1.981275,0.092 -0.05542,0.81999 -0.105065,1.61001 -0.07441,1.96525 -2.138928,-0.53441 -2.245548,1.13142 -2.45153,2.50011 -0.129698,0.8618 1.032669,1.67131 1.150318,2.71301 -0.23522,0.5484 -0.322968,1.10332 -0.0078,1.67638 0.381937,0.092 0.738516,0.0906 1.086239,0.0563 0.838775,0.90074 1.554961,1.51991 2.960026,1.49965 1.041893,-0.015 1.345873,-0.2222 1.740979,-0.49403 0.07076,1.15038 0.507279,3.13456 2.642216,2.96778 1.702361,-0.13298 2.602163,-0.69424 3.681429,-2.92023 0.487076,0.12364 0.901339,0.30814 1.780253,0.0212 -0.0036,0.68558 0.08844,1.33461 0.611849,1.81695 -1.268836,0.23209 -2.072598,1.45405 -2.055689,1.86086 0.02318,0.55757 0.83017,1.20455 1.750798,1.56683 -0.18065,0.5417 0.05913,1.0888 0.682646,1.33016 l 0.05736,0.9157 c -0.481764,0.0629 -0.501482,0.85623 -0.289905,1.03301 -3.157776,0.49131 -3.28936,1.22731 -3.633887,1.94614 h 7.436239 c -0.204787,-0.65886 -0.102136,-1.53794 -0.943095,-1.74046 0.718572,-0.18094 0.599329,-1.35908 0.133842,-1.40974 -0.36956,-1.62134 -0.580578,-3.09204 -0.124024,-5.32887 0.485967,1.19602 1.368623,1.11592 2.245341,1.12396 1.189128,0.0109 0.99922,-1.12341 0.403076,-2.59984 0.06882,-1.1006 -0.444129,-1.61761 -1.111043,-2.08411 -0.534427,-0.37383 -2.15129,-0.7674 -2.15129,-0.7674 2.05223,-0.87934 4.32943,-1.60154 6.591846,-2.33422 -1.094684,-1.05413 -2.329768,-2.11934 -4.853451,-3.28559 1.793901,-1.43934 3.975334,-2.57076 6.04821,-3.7884 -1.885823,-0.43534 -3.896342,-0.45509 -6.512264,-0.39739 0.564929,-1.41384 1.318986,-2.87284 2.5585,-3.75016 -0.773358,-0.10869 -1.554008,-0.15536 -2.333191,-0.14624 z M 42.67847,212.39674 c 0.139488,2.07643 1.047481,2.20814 1.047481,2.20814 0.122811,0.68861 0.372771,1.23319 0.680062,1.71307 -0.305468,0.88971 -2.66306,1.15337 -3.408061,-0.14883 0.101166,-1.07528 -0.312125,-1.36787 -0.312126,-1.36787 l 0.02997,-0.35502 c 0,0 1.222952,-0.57272 1.962671,-2.04949 z m 11.265462,7.60987 c 0.482549,0.174 0.933624,0.21463 1.344104,0.0806 l -0.203088,1.46968 c -0.345144,-0.41527 -1.090085,-0.70273 -1.922364,-0.0103 -0.310402,-0.0575 -0.48475,-0.33245 -0.67231,-0.61547 0.330575,-0.4297 0.943964,-0.64561 1.453658,-0.92449 z" /></g></svg>
