<?xml version="1.0" encoding="UTF-8"?>
<svg xmlns="http://www.w3.org/2000/svg" xmlns:xlink="http://www.w3.org/1999/xlink" width="32" height="32" viewBox="0 0 32 32">
<defs>
<linearGradient id="linear-pattern-0" gradientUnits="userSpaceOnUse" x1="9" y1="24" x2="23" y2="24" gradientTransform="matrix(1, 0, 0, 1, 0, -1)">
<stop offset="0" stop-color="rgb(100%, 0%, 0%)" stop-opacity="1"/>
<stop offset="0.156749" stop-color="rgb(100%, 56.470591%, 0%)" stop-opacity="1"/>
<stop offset="0.313722" stop-color="rgb(100%, 92.941177%, 0%)" stop-opacity="1"/>
<stop offset="0.509025" stop-color="rgb(0%, 100%, 23.529412%)" stop-opacity="1"/>
<stop offset="0.754102" stop-color="rgb(0%, 23.529412%, 100%)" stop-opacity="1"/>
<stop offset="1" stop-color="rgb(67.843139%, 0%, 100%)" stop-opacity="1"/>
</linearGradient>
<linearGradient id="linear-pattern-1" gradientUnits="userSpaceOnUse" x1="9" y1="24" x2="23" y2="24" gradientTransform="matrix(1, 0, 0, 1, 0, -1)">
<stop offset="0" stop-color="rgb(100%, 0%, 0%)" stop-opacity="1"/>
<stop offset="0.156749" stop-color="rgb(100%, 56.470591%, 0%)" stop-opacity="1"/>
<stop offset="0.313722" stop-color="rgb(100%, 92.941177%, 0%)" stop-opacity="1"/>
<stop offset="0.509025" stop-color="rgb(0%, 100%, 23.529412%)" stop-opacity="1"/>
<stop offset="0.754102" stop-color="rgb(0%, 23.529412%, 100%)" stop-opacity="1"/>
<stop offset="1" stop-color="rgb(67.843139%, 0%, 100%)" stop-opacity="1"/>
</linearGradient>
<linearGradient id="linear-pattern-2" gradientUnits="userSpaceOnUse" x1="9" y1="24" x2="23" y2="24" gradientTransform="matrix(1, 0, 0, 1, 0, -1)">
<stop offset="0" stop-color="rgb(100%, 0%, 0%)" stop-opacity="1"/>
<stop offset="0.156749" stop-color="rgb(100%, 56.470591%, 0%)" stop-opacity="1"/>
<stop offset="0.313722" stop-color="rgb(100%, 92.941177%, 0%)" stop-opacity="1"/>
<stop offset="0.509025" stop-color="rgb(0%, 100%, 23.529412%)" stop-opacity="1"/>
<stop offset="0.754102" stop-color="rgb(0%, 23.529412%, 100%)" stop-opacity="1"/>
<stop offset="1" stop-color="rgb(67.843139%, 0%, 100%)" stop-opacity="1"/>
</linearGradient>
</defs>
<path fill-rule="nonzero" fill="rgb(4.313726%, 9.019608%, 15.686275%)" fill-opacity="1" d="M 4 0 L 28 0 C 30.210938 0 32 1.789062 32 4 L 32 28 C 32 30.210938 30.210938 32 28 32 L 4 32 C 1.789062 32 0 30.210938 0 28 L 0 4 C 0 1.789062 1.789062 0 4 0 Z M 4 0 "/>
<path fill-rule="nonzero" fill="rgb(100%, 100%, 100%)" fill-opacity="1" d="M 4 1 L 28 1 C 29.65625 1 31 2.34375 31 4 L 31 28 C 31 29.65625 29.65625 31 28 31 L 4 31 C 2.34375 31 1 29.65625 1 28 L 1 4 C 1 2.34375 2.34375 1 4 1 Z M 4 1 "/>
<path fill-rule="nonzero" fill="rgb(4.313726%, 9.019608%, 15.686275%)" fill-opacity="1" d="M 10 6 L 12 6 C 12.550781 6 13 6.449219 13 7 L 13 9 C 13 9.550781 12.550781 10 12 10 L 10 10 C 9.449219 10 9 9.550781 9 9 L 9 7 C 9 6.449219 9.449219 6 10 6 Z M 10 6 "/>
<path fill-rule="nonzero" fill="rgb(4.313726%, 9.019608%, 15.686275%)" fill-opacity="1" d="M 10 11 L 12 11 C 12.550781 11 13 11.449219 13 12 L 13 14 C 13 14.550781 12.550781 15 12 15 L 10 15 C 9.449219 15 9 14.550781 9 14 L 9 12 C 9 11.449219 9.449219 11 10 11 Z M 10 11 "/>
<path fill-rule="nonzero" fill="rgb(4.313726%, 9.019608%, 15.686275%)" fill-opacity="1" d="M 10 16 L 12 16 C 12.550781 16 13 16.449219 13 17 L 13 19 C 13 19.550781 12.550781 20 12 20 L 10 20 C 9.449219 20 9 19.550781 9 19 L 9 17 C 9 16.449219 9.449219 16 10 16 Z M 10 16 "/>
<path fill-rule="nonzero" fill="url(#linear-pattern-0)" d="M 10 21 L 12 21 C 12.550781 21 13 21.449219 13 22 L 13 24 C 13 24.550781 12.550781 25 12 25 L 10 25 C 9.449219 25 9 24.550781 9 24 L 9 22 C 9 21.449219 9.449219 21 10 21 Z M 10 21 "/>
<path fill-rule="nonzero" fill="url(#linear-pattern-1)" d="M 15 21 L 17 21 C 17.550781 21 18 21.449219 18 22 L 18 24 C 18 24.550781 17.550781 25 17 25 L 15 25 C 14.449219 25 14 24.550781 14 24 L 14 22 C 14 21.449219 14.449219 21 15 21 Z M 15 21 "/>
<path fill-rule="nonzero" fill="url(#linear-pattern-2)" d="M 20 21 L 22 21 C 22.550781 21 23 21.449219 23 22 L 23 24 C 23 24.550781 22.550781 25 22 25 L 20 25 C 19.449219 25 19 24.550781 19 24 L 19 22 C 19 21.449219 19.449219 21 20 21 Z M 20 21 "/>
</svg>
